<svg width="140" height="30" viewBox="0 0 140 30" fill="none" xmlns="http://www.w3.org/2000/svg">
<path d="M29.9725 16.375H16.3594V30.0005H29.9725V16.375Z" fill="#1A5AA5"/>
<path d="M13.6131 16.375H0V30.0005H13.6131V16.375Z" fill="#1F254A"/>
<path d="M28.7784 1.19522V12.4303H17.5535V1.19522H28.7784ZM29.9725 0H16.3594V13.6255H29.9725V0Z" fill="#1F254A"/>
<path d="M13.6131 0H0V13.6255H13.6131V0Z" fill="#1F254A"/>
<path d="M51.069 9.9455H49.207V8.24219H55.4936C58.5567 8.24219 59.818 9.72507 59.818 11.7891C59.818 13.5324 58.837 14.7348 57.0151 15.1957L59.4176 20.1453H61.0793V21.8486H58.1363L55.053 15.4762H53.1111V20.1453H54.8729V21.8486H49.207V20.1453H51.069V9.9455ZM55.4134 13.7729C57.3354 13.7729 57.7358 12.6909 57.7358 11.7891C57.7358 10.5867 56.895 9.9455 55.5936 9.9455H53.1111V13.7729H55.4134Z" fill="#1A5AA5"/>
<path d="M75.2923 17.3015C74.4914 20.2672 71.9889 22.0708 68.7054 22.0708C64.6813 22.0708 61.8984 19.1851 61.8984 15.0571C61.8984 10.8289 64.5812 8.02344 68.6654 8.02344C70.3872 8.02344 71.9688 8.54452 73.15 9.48635V8.24386H74.9119V12.6124H73.15C72.3692 10.889 70.6875 9.82694 68.7655 9.82694C66.0627 9.82694 64.1408 11.9911 64.1408 14.997C64.1408 17.9628 66.1628 20.2272 68.8456 20.2272C70.6875 20.2272 72.8298 19.0048 73.5105 16.3196L75.2923 17.3015" fill="#1A5AA5"/>
<path d="M96.3338 15.2776C96.454 20.2472 92.9703 22.0908 89.4266 22.0908C83.6407 22.0908 82.1992 17.6622 82.1992 14.997C82.1992 11.8309 84.1012 8.02344 89.0663 8.02344C91.0083 8.02344 92.4097 8.54452 93.8312 9.74679V8.24386H95.573V12.7126H93.8312C93.0504 10.9892 91.2285 9.82694 89.2465 9.82694C86.4035 9.82694 84.4415 11.9511 84.4415 15.017C84.4415 18.063 86.5437 20.2672 89.4467 20.2672C91.709 20.2672 93.5108 18.9045 93.8312 16.9808H91.3686V15.2776H96.3338" fill="#1A5AA5"/>
<path d="M99.6578 14.034H97.7559V12.3908H101.139V14.5149H101.179C101.78 12.9318 102.981 12.2305 104.162 12.2305H105.384V14.1141H104.383C102.2 14.1141 101.54 15.3364 101.54 17.5007V20.206H103.582V21.8491H97.7958V20.206H99.6578V14.034" fill="#1A5AA5"/>
<path d="M110.61 12.1133C113.453 12.1133 115.575 14.2575 115.575 17.123C115.575 19.9885 113.433 22.1327 110.59 22.1327C107.747 22.1327 105.625 19.9885 105.625 17.123C105.625 14.2574 107.747 12.1133 110.61 12.1133V12.1133ZM110.59 20.3292C112.292 20.3292 113.573 18.9666 113.573 17.123C113.573 15.2995 112.292 13.9168 110.59 13.9168C108.908 13.9168 107.627 15.2995 107.627 17.123C107.627 18.9666 108.908 20.3292 110.59 20.3292V20.3292Z" fill="#1A5AA5"/>
<path d="M127.406 21.849H123.903V20.7669C122.842 21.5886 121.801 22.0094 120.82 22.0094C119.098 22.0094 118.197 21.0675 118.197 19.0837V14.0339H116.855V12.3906H120.079V18.9834C120.079 19.9453 120.479 20.3661 121.2 20.3661C121.981 20.3661 123.062 19.9052 123.903 19.1638V14.0339H122.281V12.3906H125.785V20.2058H127.406V21.849" fill="#1A5AA5"/>
<path d="M129.47 14.034H127.888V12.3908H131.352V13.8736H131.392C132.233 12.7915 133.394 12.2305 134.675 12.2305C137.378 12.2305 139.3 14.2744 139.3 17.1601C139.3 19.9855 137.278 22.1296 134.655 22.1296C133.454 22.1296 132.253 21.6086 131.352 20.6868V24.4542H133.174V26.0974H127.748V24.4542H129.47V14.034H129.47ZM134.295 20.4264C136.117 20.4264 137.358 19.0838 137.358 17.0799C137.358 15.2364 136.097 13.8737 134.395 13.8737C132.633 13.8737 131.312 15.3165 131.312 17.2402C131.312 19.0838 132.553 20.4264 134.295 20.4264L134.295 20.4264Z" fill="#1A5AA5"/>
<path d="M37.7207 8.19531H43.2138V9.92835H41.4225V20.1595H45.7214V15.5459H47.632V21.8607H37.7207V20.1595H39.3925V9.92835H37.7207V8.19531Z" fill="#1A5AA5"/>
</svg>
