<svg width="33" height="33" viewBox="0 0 33 33" fill="none" xmlns="http://www.w3.org/2000/svg">
<path fill-rule="evenodd" clip-rule="evenodd" d="M11.9213 25.9761C11.5451 27.8907 9.85767 29.335 7.83285 29.335H4.49952C4.03928 29.335 3.66619 28.9619 3.66619 28.5016V25.1683C3.66619 23.1435 5.11048 21.456 7.02506 21.0799L7.04476 20.5085C7.07807 19.5425 7.17756 18.5944 7.33872 17.6683H1.16619C0.576633 17.6683 0.173501 17.0729 0.392456 16.5255L3.72579 8.19215C3.85234 7.87577 4.15877 7.66831 4.49952 7.66831H11.9995C12.0418 7.66831 12.0834 7.67146 12.124 7.67754C16.048 3.20408 21.874 0.463247 28.285 0.684315C29.3028 0.719411 30.3166 0.830135 31.3179 1.01557C31.6573 1.07841 31.9227 1.3439 31.9856 1.68323C33.3532 9.06814 30.5866 16.2613 25.3241 20.8802C25.3299 20.9198 25.3329 20.9604 25.3329 21.0016V28.5016C25.3329 28.8424 25.1254 29.1488 24.809 29.2754L16.4757 32.6087C15.9283 32.8277 15.3329 32.4245 15.3329 31.835V25.6599C14.3942 25.8245 13.4452 25.9235 12.4926 25.9564L11.9213 25.9761ZM10.312 25.4926L7.50852 22.6892C6.28103 22.8482 5.33285 23.8975 5.33285 25.1683V27.6683H7.83285C9.10365 27.6683 10.153 26.7201 10.312 25.4926ZM16.9995 30.6041V25.2967C19.4518 24.6559 21.696 23.5884 23.6662 22.1903V27.9374L16.9995 30.6041ZM7.70084 16.0016C8.33623 13.5708 9.4038 11.3207 10.8141 9.33498H5.06371L2.39705 16.0016H7.70084ZM12.4352 24.2907L11.4994 24.323L8.67817 21.5018L8.71044 20.566C9.06974 10.1463 17.8079 1.99069 28.2276 2.34999C28.9699 2.37559 29.7099 2.44497 30.4437 2.5577C31.9924 12.6016 25.2832 22.1232 15.222 23.9863C14.3019 24.1567 13.3704 24.2585 12.4352 24.2907ZM20.3329 17.6683C17.5714 17.6683 15.3329 15.4297 15.3329 12.6683C15.3329 9.90688 17.5714 7.66831 20.3329 7.66831C23.0943 7.66831 25.3329 9.90688 25.3329 12.6683C25.3329 15.4297 23.0943 17.6683 20.3329 17.6683ZM23.6662 12.6683C23.6662 14.5093 22.1738 16.0016 20.3329 16.0016C18.4919 16.0016 16.9995 14.5093 16.9995 12.6683C16.9995 10.8274 18.4919 9.33498 20.3329 9.33498C22.1738 9.33498 23.6662 10.8274 23.6662 12.6683Z" fill="#333B49"/>
</svg>
