<svg width="30" height="31" viewBox="0 0 30 31" fill="none" xmlns="http://www.w3.org/2000/svg">
<path fill-rule="evenodd" clip-rule="evenodd" d="M10 0.833333V8.82149L1.42259 0.244078C1.09715 -0.0813592 0.569515 -0.0813592 0.244078 0.244078C-0.0813592 0.569515 -0.0813592 1.09715 0.244078 1.42259L8.82149 10H0.833333C0.373096 10 0 10.3731 0 10.8333C0 11.2936 0.373096 11.6667 0.833333 11.6667H10.8333C11.2936 11.6667 11.6667 11.2936 11.6667 10.8333V0.833333C11.6667 0.373096 11.2936 0 10.8333 0C10.3731 0 10 0.373096 10 0.833333ZM0.833333 20H8.82149L0.244078 28.5774C-0.0813592 28.9028 -0.0813592 29.4305 0.244078 29.7559C0.569515 30.0814 1.09715 30.0814 1.42259 29.7559L10 21.1785V29.1667C10 29.6269 10.3731 30 10.8333 30C11.2936 30 11.6667 29.6269 11.6667 29.1667V19.1667C11.6667 18.7064 11.2936 18.3333 10.8333 18.3333H0.833333C0.373096 18.3333 0 18.7064 0 19.1667C0 19.6269 0.373096 20 0.833333 20ZM21.1785 10H29.1667C29.6269 10 30 10.3731 30 10.8333C30 11.2936 29.6269 11.6667 29.1667 11.6667H19.1667C18.7064 11.6667 18.3333 11.2936 18.3333 10.8333V0.833333C18.3333 0.373096 18.7064 0 19.1667 0C19.6269 0 20 0.373096 20 0.833333V8.82149L28.5774 0.244078C28.9028 -0.0813592 29.4305 -0.0813592 29.7559 0.244078C30.0814 0.569515 30.0814 1.09715 29.7559 1.42259L21.1785 10ZM29.7559 28.5774L21.1785 20H29.1667C29.6269 20 30 19.6269 30 19.1667C30 18.7064 29.6269 18.3333 29.1667 18.3333H19.1667C18.7064 18.3333 18.3333 18.7064 18.3333 19.1667V29.2013C18.3333 29.6616 18.7064 30.0347 19.1667 30.0347C19.6269 30.0347 20 29.6616 20 29.2013V21.1785L28.5774 29.7559C28.9028 30.0814 29.4305 30.0814 29.7559 29.7559C30.0814 29.4305 30.0814 28.9028 29.7559 28.5774Z" fill="#333B49"/>
</svg>
