<svg width="30" height="30" viewBox="0 0 30 30" fill="none" xmlns="http://www.w3.org/2000/svg">
<path fill-rule="evenodd" clip-rule="evenodd" d="M30 4.16667C30 1.86548 28.1345 0 25.8333 0H4.16667C1.86548 0 0 1.86548 0 4.16667V25.8333C0 28.1345 1.86548 30 4.16667 30H25.8333C28.1345 30 30 28.1345 30 25.8333V4.16667ZM27.6805 27.5179C28.086 27.0736 28.3333 26.4823 28.3333 25.8333V4.16667C28.3333 2.78595 27.214 1.66667 25.8333 1.66667H4.16667C2.78595 1.66667 1.66667 2.78595 1.66667 4.16667V25.8333C1.66667 27.214 2.78595 28.3333 4.16667 28.3333C5.54738 28.3333 6.66667 27.214 6.66667 25.8333V22.5C6.66667 21.9444 7.2 21.5444 7.73333 21.7L27.6805 27.5179ZM24.5238 28.3333L8.33333 23.6111V25.8333C8.33333 26.7713 8.02338 27.637 7.50031 28.3333H24.5238Z" fill="#333B49"/>
</svg>
