<svg width="34" height="30" viewBox="0 0 34 30" fill="none" xmlns="http://www.w3.org/2000/svg">
<path fill-rule="evenodd" clip-rule="evenodd" d="M26.86 0.371667L33.5266 10.3717C33.735 10.6833 33.71 11.095 33.465 11.3783L17.6316 29.7117C17.6091 29.7373 17.5821 29.7541 17.555 29.771C17.538 29.7816 17.521 29.7922 17.505 29.805C17.4943 29.8132 17.4841 29.8217 17.4739 29.8302C17.4491 29.8509 17.4246 29.8713 17.395 29.8867C17.1466 30.0233 16.8533 30.0233 16.605 29.8867C16.5754 29.8713 16.5509 29.8509 16.526 29.8302C16.5158 29.8217 16.5056 29.8132 16.495 29.805C16.4793 29.7924 16.4626 29.782 16.4461 29.7716C16.4188 29.7545 16.3918 29.7376 16.37 29.7117L0.536644 11.3783C0.291644 11.095 0.266644 10.6833 0.473311 10.3717L7.13998 0.371667C7.14164 0.37 7.14331 0.36875 7.14498 0.3675C7.14664 0.36625 7.14831 0.365 7.14998 0.363333C7.21831 0.261667 7.31165 0.178333 7.42165 0.116667C7.43924 0.105917 7.45855 0.0997511 7.47823 0.0934656C7.49212 0.0890316 7.50619 0.0845379 7.51998 0.0783333C7.53748 0.0713333 7.55453 0.0634333 7.57158 0.0555333C7.61136 0.0371 7.65115 0.0186667 7.69665 0.0116667C7.71172 0.00900628 7.72585 0.0105925 7.73979 0.0121573C7.75205 0.0135335 7.76417 0.0148931 7.77664 0.0133333C7.78664 0.0133333 7.79581 0.01 7.80498 0.00666667C7.81415 0.00333333 7.82331 0 7.83331 0H26.1666C26.1769 0 26.1862 0.00347994 26.1954 0.00688417C26.2041 0.0101434 26.2127 0.0133333 26.2216 0.0133333C26.2351 0.0149131 26.2481 0.013498 26.261 0.0121042C26.2753 0.0105571 26.2893 0.00903638 26.3033 0.0116667C26.348 0.0185389 26.3871 0.036431 26.4267 0.0545242C26.4448 0.0627589 26.4629 0.0710353 26.4816 0.0783333C26.4954 0.0848523 26.5098 0.0894825 26.5243 0.0941392C26.5431 0.100198 26.5621 0.106301 26.58 0.116667C26.69 0.178333 26.7816 0.261667 26.8516 0.363333C26.8525 0.365 26.8541 0.36625 26.8558 0.3675C26.8575 0.36875 26.8591 0.37 26.86 0.371667ZM8.81664 1.66667L10.0016 8.775L15.3333 1.66667H8.81664ZM8.51664 10H2.72331L7.35831 3.05L8.51664 10ZM25.4833 10L26.6416 3.05L31.2766 10H25.4833ZM25.06 11.6667H31.0116L19.7016 24.7633L25.06 11.6667ZM14.2983 24.7633L8.93998 11.6667H2.98664L14.2983 24.7633ZM18.6666 1.66667H25.1833L23.9983 8.775L18.6666 1.66667ZM17 2.22167L11.1666 10H22.8333L17 2.22167ZM23.2583 11.6667L17 26.9667L10.7416 11.6667H23.2583Z" fill="#333B49"/>
</svg>
