<svg width="34" height="34" viewBox="0 0 34 34" fill="none" xmlns="http://www.w3.org/2000/svg">
<path fill-rule="evenodd" clip-rule="evenodd" d="M16.3186 33.6517C16.2696 33.6607 16.219 33.6654 16.1673 33.6654C16.0856 33.6654 16.0066 33.6536 15.9319 33.6316C7.22518 33.0806 0.333984 25.8444 0.333984 16.9987C0.333984 7.79395 7.79591 0.332031 17.0007 0.332031C26.2054 0.332031 33.6673 7.79395 33.6673 16.9987C33.6673 26.2034 26.2054 33.6654 17.0007 33.6654C16.7722 33.6654 16.5448 33.6608 16.3186 33.6517ZM15.334 29.8439V31.9071C7.83407 31.0781 2.00065 24.7196 2.00065 16.9987C2.00065 15.3468 2.26768 13.7572 2.76094 12.2708L7.24473 16.7546C7.57017 17.0801 8.0978 17.0801 8.42324 16.7546L10.0899 15.088C10.2462 14.9317 10.334 14.7197 10.334 14.4987V13.6654H12.834C14.2147 13.6654 15.334 12.5461 15.334 11.1654V9.4987C15.334 9.03846 15.7071 8.66536 16.1673 8.66536H17.834C20.1352 8.66536 22.0007 6.79988 22.0007 4.4987V2.85223C27.8266 4.91141 32.0007 10.4676 32.0007 16.9987C32.0007 20.0823 31.0702 22.9485 29.4747 25.332H26.1673C25.7071 25.332 25.334 24.9589 25.334 24.4987C25.334 23.118 24.2147 21.9987 22.834 21.9987C22.3737 21.9987 22.0007 21.6256 22.0007 21.1654V19.4987C22.0007 18.118 20.8814 16.9987 19.5007 16.9987H11.1673C10.7071 16.9987 10.334 17.3718 10.334 17.832V19.4987C10.334 19.7197 10.4218 19.9317 10.5781 20.088L12.0007 21.5105V26.1654C12.0007 26.3864 12.0884 26.5983 12.2447 26.7546L15.334 29.8439ZM28.1812 26.9987C25.4346 30.0674 21.4432 31.9987 17.0007 31.9987V29.4987C17.0007 29.2777 16.9129 29.0657 16.7566 28.9094L13.6673 25.8202V21.1654C13.6673 20.9444 13.5795 20.7324 13.4232 20.5761L12.0007 19.1535V18.6654H19.5007C19.9609 18.6654 20.334 19.0385 20.334 19.4987V21.1654C20.334 22.5461 21.4533 23.6654 22.834 23.6654C23.2942 23.6654 23.6673 24.0385 23.6673 24.4987C23.6673 25.8794 24.7866 26.9987 26.1673 26.9987H28.1812ZM7.83398 14.9869L3.4355 10.5884C5.83918 5.51079 11.0098 1.9987 17.0007 1.9987C18.1463 1.9987 19.2619 2.12713 20.334 2.37039V4.4987C20.334 5.87941 19.2147 6.9987 17.834 6.9987H16.1673C14.7866 6.9987 13.6673 8.11799 13.6673 9.4987V11.1654C13.6673 11.6256 13.2942 11.9987 12.834 11.9987H9.50065C9.04041 11.9987 8.66732 12.3718 8.66732 12.832V14.1535L7.83398 14.9869Z" fill="#333B49"/>
</svg>
