<svg width="180" height="28" viewBox="0 0 180 28" fill="none" xmlns="http://www.w3.org/2000/svg">
<path d="M0 0H10.4629V10.4629H0V0Z" fill="white"/>
<path fill-rule="evenodd" clip-rule="evenodd" d="M21.4111 1.25939H13.467V9.20348H21.4111V1.25939ZM12.2077 0V10.4629H22.6705V0H12.2077Z" fill="white"/>
<path d="M0 12.2077H10.4629V22.6705H0V12.2077Z" fill="white"/>
<path d="M12.2077 12.2077H22.6705V22.6705H12.2077V12.2077Z" fill="white"/>
<path d="M49.2375 17.9841V22.0343H34.0039V0.513831H38.7191V17.9841H49.2375Z" fill="white"/>
<path d="M52.102 0.513831H62.8018C64.9377 0.513831 66.6807 1.01759 68.0308 2.0251C69.3809 3.03261 70.0559 4.56402 70.0559 6.61935C70.0559 7.86866 69.7536 8.96685 69.1491 9.91391C68.5446 10.8408 67.7084 11.5058 66.6404 11.9088C68.4942 12.2916 69.5521 13.9641 69.8141 16.9262C69.8141 17.0269 69.8342 17.3393 69.8745 17.8632C69.9148 18.3871 69.9551 18.8102 69.9954 19.1326C70.0357 19.4349 70.0861 19.8077 70.1466 20.251C70.207 20.6943 70.2977 21.0671 70.4186 21.3693C70.5395 21.6716 70.6805 21.8932 70.8417 22.0343H65.9452C65.784 21.7119 65.6631 21.3089 65.5825 20.8253C65.5019 20.3215 65.4314 19.6868 65.371 18.9211C65.3105 18.1352 65.2803 17.702 65.2803 17.6214C65.1191 16.1101 64.7362 15.0623 64.1317 14.4779C63.5474 13.8936 62.4996 13.6014 60.9883 13.6014H56.787V22.0343H52.102V0.513831ZM56.787 4.23155V10.1859H61.2603C62.5701 10.1859 63.5877 9.98444 64.3131 9.58143C65.0586 9.15828 65.4314 8.34219 65.4314 7.13318C65.4314 6.00477 65.0687 5.23906 64.3433 4.83605C63.638 4.43305 62.6809 4.23155 61.4719 4.23155H56.787Z" fill="white"/>
<path d="M92.957 13.7223C92.7152 16.4224 91.7681 18.5684 90.1158 20.1603C88.4635 21.7522 86.1966 22.5481 83.3151 22.5481C80.1918 22.5481 77.6731 21.5204 75.7588 19.4651C73.8647 17.3896 72.9176 14.6492 72.9176 11.2438C72.9176 8.01979 73.8747 5.33981 75.789 3.20389C77.7234 1.06796 80.2926 0 83.4965 0C86.0556 0 88.2016 0.725408 89.9345 2.17622C91.6674 3.62704 92.6245 5.47079 92.8059 7.70746H88.1814C87.9396 6.5186 87.3955 5.60176 86.5492 4.95696C85.7231 4.292 84.6753 3.95952 83.4058 3.95952C82.096 3.95952 80.9878 4.3323 80.081 5.07786C79.1944 5.80326 78.5698 6.69995 78.207 7.76791C77.8443 8.83587 77.663 10.0046 77.663 11.2741C77.663 13.4906 78.1768 15.2638 79.2045 16.5937C80.2321 17.9035 81.6124 18.5584 83.3454 18.5584C86.2268 18.5584 87.8691 16.9463 88.2721 13.7223H92.957Z" fill="white"/>
<path d="M117.733 10.5789V21.9738H115.92L115.194 19.2838C113.461 21.4197 111.144 22.4877 108.242 22.4877C105.18 22.4877 102.701 21.4701 100.807 19.4349C98.9331 17.3796 97.9961 14.6996 97.9961 11.395C97.9961 8.11047 98.923 5.39019 100.777 3.23411C102.651 1.07804 105.21 0 108.454 0C109.945 0 111.336 0.261953 112.625 0.785859C113.915 1.28961 115.013 2.09562 115.92 3.20389C116.826 4.292 117.34 5.58161 117.461 7.07273H114.68C114.459 5.66221 113.774 4.5338 112.625 3.68749C111.497 2.82103 110.106 2.3878 108.454 2.3878C106.117 2.3878 104.263 3.19381 102.893 4.80583C101.522 6.3977 100.837 8.56385 100.837 11.3043C100.837 14.0044 101.522 16.1504 102.893 17.7423C104.263 19.3341 106.107 20.1301 108.424 20.1301C110.6 20.1301 112.252 19.4752 113.381 18.1654C114.529 16.8355 115.134 15.0824 115.194 12.9062H108.303V10.5789H117.733Z" fill="white"/>
<path d="M129.666 6.01484V8.67467C129.485 8.65452 129.263 8.64445 129.001 8.64445C128.175 8.64445 127.459 8.77542 126.855 9.03738C126.25 9.27918 125.767 9.60158 125.404 10.0046C125.062 10.4076 124.779 10.9113 124.558 11.5159C124.336 12.1204 124.185 12.7249 124.104 13.3294C124.044 13.9339 124.014 14.619 124.014 15.3847V21.9738H121.445V6.37755H123.893V9.73256C124.92 7.25408 126.845 6.01484 129.666 6.01484Z" fill="white"/>
<path d="M132.308 8.16084C133.679 6.66973 135.543 5.92417 137.9 5.92417C140.258 5.92417 142.091 6.6395 143.401 8.07017C144.711 9.50083 145.366 11.5058 145.366 14.085C145.366 16.7247 144.711 18.78 143.401 20.251C142.091 21.7219 140.248 22.4574 137.87 22.4574C135.492 22.4574 133.628 21.732 132.278 20.2812C130.928 18.8304 130.253 16.8154 130.253 14.2361C130.253 11.6771 130.938 9.65196 132.308 8.16084ZM141.406 9.73256C140.54 8.6243 139.351 8.07017 137.84 8.07017C136.328 8.07017 135.129 8.6243 134.243 9.73256C133.356 10.8408 132.913 12.3219 132.913 14.1757C132.913 16.09 133.346 17.5911 134.213 18.6793C135.099 19.7472 136.328 20.2812 137.9 20.2812C139.411 20.2812 140.59 19.7371 141.437 18.649C142.303 17.5609 142.736 16.0597 142.736 14.1455C142.736 12.2916 142.293 10.8207 141.406 9.73256Z" fill="white"/>
<path d="M161.362 6.37755V21.9738H158.974V19.5256C157.644 21.4398 155.851 22.397 153.594 22.397C151.941 22.397 150.662 21.9436 149.755 21.0368C148.848 20.1301 148.395 18.8203 148.395 17.1075V6.37755H150.964V16.4124C150.964 17.6415 151.196 18.5785 151.659 19.2233C152.143 19.848 152.999 20.1603 154.228 20.1603C157.271 20.1603 158.792 18.2863 158.792 14.5384V6.37755H161.362Z" fill="white"/>
<path d="M167.638 6.37755V8.584C168.767 6.79063 170.52 5.89394 172.898 5.89394C175.074 5.89394 176.797 6.62943 178.066 8.10039C179.356 9.57136 180.001 11.5662 180.001 14.085C180.001 16.6038 179.366 18.6188 178.096 20.1301C176.847 21.6212 175.154 22.3668 173.018 22.3668C170.782 22.3668 169.039 21.5104 167.789 19.7976V27.9887H165.22V6.37755H167.638ZM172.505 8.03994C171.014 8.03994 169.835 8.584 168.968 9.67211C168.122 10.7401 167.699 12.2211 167.699 14.1152C167.699 16.0094 168.132 17.5005 168.998 18.5886C169.885 19.6565 171.084 20.1905 172.595 20.1905C174.066 20.1905 175.225 19.6465 176.071 18.5584C176.918 17.4702 177.341 15.9892 177.341 14.1152C177.341 12.2211 176.907 10.7401 176.041 9.67211C175.195 8.584 174.016 8.03994 172.505 8.03994Z" fill="white"/>
</svg>
