<svg width="40" height="40" viewBox="0 0 40 40" fill="none" xmlns="http://www.w3.org/2000/svg">
<path fill-rule="evenodd" clip-rule="evenodd" d="M35 30.8346C35 30.3744 34.6269 30.0013 34.1667 30.0013H9.16667C7.78595 30.0013 6.66667 28.882 6.66667 27.5013V12.5013C6.66667 12.0411 6.29357 11.668 5.83333 11.668C5.3731 11.668 5 12.0411 5 12.5013V27.5013C5 29.8025 6.86548 31.668 9.16667 31.668H34.1667C34.6269 31.668 35 31.2949 35 30.8346ZM27.5 13.3346H32.1548L24.1667 21.3228L19.7559 16.912C19.4305 16.5866 18.9028 16.5866 18.5774 16.912L11.9107 23.5787C11.5853 23.9042 11.5853 24.4318 11.9107 24.7572C12.2362 25.0827 12.7638 25.0827 13.0893 24.7572L19.1667 18.6798L23.5774 23.0906C23.9028 23.416 24.4305 23.416 24.7559 23.0906L33.3333 14.5131V19.168C33.3333 19.6282 33.7064 20.0013 34.1667 20.0013C34.6269 20.0013 35 19.6282 35 19.168V12.5013C35 12.0411 34.6269 11.668 34.1667 11.668H27.5C27.0398 11.668 26.6667 12.0411 26.6667 12.5013C26.6667 12.9615 27.0398 13.3346 27.5 13.3346Z" fill="#333B49"/>
</svg>
